# Blender v2.81 (sub 16) OBJ File: ''
# www.blender.org
mtllib smooth_box.mtl
o Cube
v 1.000000 1.000000 -1.000000
v 1.000000 -1.000000 -1.000000
v 1.000000 1.000000 1.000000
v 1.000000 -1.000000 1.000000
v -1.000000 1.000000 -1.000000
v -1.000000 -1.000000 -1.000000
v -1.000000 1.000000 1.000000
v -1.000000 -1.000000 1.000000
vt 0.875000 0.500000
vt 0.625000 0.750000
vt 0.625000 0.500000
vt 0.375000 1.000000
vt 0.375000 0.750000
vt 0.625000 0.000000
vt 0.375000 0.250000
vt 0.375000 0.000000
vt 0.375000 0.500000
vt 0.125000 0.750000
vt 0.125000 0.500000
vt 0.625000 0.250000
vt 0.875000 0.750000
vt 0.625000 1.000000
vn -0.2762 0.7864 -0.5526
vn 0.2762 0.7864 0.5526
vn 0.7134 0.6032 -0.3567
vn 0.2762 0.5526 0.7864
vn -0.2762 -0.5526 0.7864
vn 0.7134 -0.3567 0.6032
vn -0.8852 0.3290 0.3290
vn -0.8852 -0.3290 -0.3290
vn -0.5466 -0.5921 0.5922
vn 0.2762 -0.7864 -0.5526
vn -0.2762 -0.7864 0.5526
vn -0.7134 -0.6032 -0.3567
vn 0.8852 0.3290 -0.3290
vn 0.8852 -0.3290 0.3290
vn 0.5466 -0.5921 -0.5922
vn -0.2762 0.5526 -0.7864
vn 0.2762 -0.5526 -0.7864
vn -0.7134 -0.3567 -0.6032
vn -0.7134 0.6032 0.3567
vn -0.7134 0.3567 0.6032
vn -0.5466 0.5921 -0.5922
vn 0.7134 -0.6032 0.3567
vn 0.5466 0.5921 0.5922
vn 0.7134 0.3567 -0.6032
usemtl Material
s off
f 5/1/1 3/2/2 1/3/3
f 3/2/4 8/4/5 4/5/6
f 7/6/7 6/7/8 8/8/9
f 2/9/10 8/10/11 6/11/12
f 1/3/13 4/5/14 2/9/15
f 5/12/16 2/9/17 6/7/18
f 5/1/1 7/13/19 3/2/2
f 3/2/4 7/14/20 8/4/5
f 7/6/7 5/12/21 6/7/8
f 2/9/10 4/5/22 8/10/11
f 1/3/13 3/2/23 4/5/14
f 5/12/16 1/3/24 2/9/17
