# Blender v2.82 (sub 7) OBJ File: ''
# www.blender.org
mtllib subdivide_mesh.mtl
o Plane
v -1.000000 0.000000 1.000000
v 1.000000 0.000000 1.000000
v -1.000000 0.000000 -1.000000
v 1.000000 0.000000 -1.000000
v -1.000000 0.000000 -0.500000
v -1.000000 0.000000 0.000000
v -1.000000 0.000000 0.500000
v -0.500000 0.000000 1.000000
v 0.000000 0.000000 1.000000
v 0.500000 0.000000 1.000000
v 1.000000 0.000000 0.500000
v 1.000000 0.000000 0.000000
v 1.000000 0.000000 -0.500000
v 0.500000 0.000000 -1.000000
v 0.000000 0.000000 -1.000000
v -0.500000 0.000000 -1.000000
v -0.500000 0.000000 0.500000
v 0.000000 0.000000 0.500000
v 0.500000 0.000000 0.500000
v -0.500000 0.000000 0.000000
v 0.000000 0.000000 0.000000
v 0.500000 0.000000 0.000000
v -0.500000 0.000000 -0.500000
v 0.000000 0.000000 -0.500000
v 0.500000 0.000000 -0.500000
vt 0.500000 0.250000
vt 0.250000 0.500000
vt 0.250000 0.250000
vt 0.750000 0.250000
vt 0.500000 0.500000
vt 0.250000 0.750000
vt 0.750000 0.500000
vt 0.500000 0.750000
vt 0.250000 0.000000
vt 0.000000 0.250000
vt 0.000000 0.000000
vt 0.500000 0.000000
vt 0.750000 0.000000
vt 1.000000 0.250000
vt 1.000000 0.500000
vt 0.750000 0.750000
vt 1.000000 0.750000
vt 0.750000 1.000000
vt 0.500000 1.000000
vt 0.250000 1.000000
vt 0.000000 0.750000
vt 0.000000 1.000000
vt 0.000000 0.500000
vt 1.000000 0.000000
vt 1.000000 1.000000
vn 0.0000 1.0000 0.0000
usemtl None
s off
f 18/1/1 20/2/1 17/3/1
f 19/4/1 21/5/1 18/1/1
f 21/5/1 23/6/1 20/2/1
f 22/7/1 24/8/1 21/5/1
f 8/9/1 7/10/1 1/11/1
f 9/12/1 17/3/1 8/9/1
f 10/13/1 18/1/1 9/12/1
f 10/13/1 11/14/1 19/4/1
f 11/14/1 22/7/1 19/4/1
f 12/15/1 25/16/1 22/7/1
f 13/17/1 14/18/1 25/16/1
f 25/16/1 15/19/1 24/8/1
f 24/8/1 16/20/1 23/6/1
f 5/21/1 16/20/1 3/22/1
f 20/2/1 5/21/1 6/23/1
f 17/3/1 6/23/1 7/10/1
f 18/1/1 21/5/1 20/2/1
f 19/4/1 22/7/1 21/5/1
f 21/5/1 24/8/1 23/6/1
f 22/7/1 25/16/1 24/8/1
f 8/9/1 17/3/1 7/10/1
f 9/12/1 18/1/1 17/3/1
f 10/13/1 19/4/1 18/1/1
f 10/13/1 2/24/1 11/14/1
f 11/14/1 12/15/1 22/7/1
f 12/15/1 13/17/1 25/16/1
f 13/17/1 4/25/1 14/18/1
f 25/16/1 14/18/1 15/19/1
f 24/8/1 15/19/1 16/20/1
f 5/21/1 23/6/1 16/20/1
f 20/2/1 23/6/1 5/21/1
f 17/3/1 20/2/1 6/23/1
