# Blender v2.82 (sub 7) OBJ File: ''
# www.blender.org
mtllib subdivide_mesh_bent.mtl
o Plane
v -1.000000 0.658220 1.000000
v 1.000000 0.544173 1.000000
v -1.000000 0.442805 -1.000000
v 1.000000 0.604442 -1.000000
v -1.000000 0.000000 -0.500000
v -1.000000 0.000000 0.000000
v -1.000000 0.000000 0.500000
v -0.500000 0.000000 1.000000
v 0.000000 0.000000 1.000000
v 0.500000 0.000000 1.000000
v 1.000000 0.000000 0.500000
v 1.000000 0.000000 0.000000
v 1.000000 0.000000 -0.500000
v 0.500000 0.000000 -1.000000
v 0.000000 0.000000 -1.000000
v -0.500000 0.000000 -1.000000
v -0.500000 0.000000 0.500000
v 0.000000 0.000000 0.500000
v 0.500000 0.000000 0.500000
v -0.500000 0.000000 0.000000
v 0.000000 0.000000 0.000000
v 0.500000 0.000000 0.000000
v -0.500000 0.000000 -0.500000
v 0.000000 0.000000 -0.500000
v 0.500000 0.000000 -0.500000
vt 0.500000 0.250000
vt 0.250000 0.500000
vt 0.250000 0.250000
vt 0.750000 0.250000
vt 0.500000 0.500000
vt 0.250000 0.750000
vt 0.750000 0.500000
vt 0.500000 0.750000
vt 0.250000 0.000000
vt 0.000000 0.250000
vt 0.000000 0.000000
vt 0.500000 0.000000
vt 0.750000 0.000000
vt 1.000000 0.250000
vt 1.000000 0.500000
vt 0.750000 0.750000
vt 1.000000 0.750000
vt 0.750000 1.000000
vt 0.500000 1.000000
vt 0.250000 1.000000
vt 0.000000 0.750000
vt 0.000000 1.000000
vt 0.000000 0.500000
vt 1.000000 0.000000
vt 1.000000 1.000000
vn 0.0000 1.0000 0.0000
vn 0.6229 0.4732 -0.6229
vn 0.5526 0.6240 0.5526
vn -0.5929 0.5448 -0.5929
vn -0.6104 0.5049 0.6104
usemtl None
s off
f 18/1/1 20/2/1 17/3/1
f 19/4/1 21/5/1 18/1/1
f 21/5/1 23/6/1 20/2/1
f 22/7/1 24/8/1 21/5/1
f 8/9/2 7/10/2 1/11/2
f 9/12/1 17/3/1 8/9/1
f 10/13/1 18/1/1 9/12/1
f 10/13/1 11/14/1 19/4/1
f 11/14/1 22/7/1 19/4/1
f 12/15/1 25/16/1 22/7/1
f 13/17/1 14/18/1 25/16/1
f 25/16/1 15/19/1 24/8/1
f 24/8/1 16/20/1 23/6/1
f 5/21/3 16/20/3 3/22/3
f 20/2/1 5/21/1 6/23/1
f 17/3/1 6/23/1 7/10/1
f 18/1/1 21/5/1 20/2/1
f 19/4/1 22/7/1 21/5/1
f 21/5/1 24/8/1 23/6/1
f 22/7/1 25/16/1 24/8/1
f 8/9/1 17/3/1 7/10/1
f 9/12/1 18/1/1 17/3/1
f 10/13/1 19/4/1 18/1/1
f 10/13/4 2/24/4 11/14/4
f 11/14/1 12/15/1 22/7/1
f 12/15/1 13/17/1 25/16/1
f 13/17/5 4/25/5 14/18/5
f 25/16/1 14/18/1 15/19/1
f 24/8/1 15/19/1 16/20/1
f 5/21/1 23/6/1 16/20/1
f 20/2/1 23/6/1 5/21/1
f 17/3/1 20/2/1 6/23/1
